<svg width="27" height="26" viewBox="0 0 27 26" fill="none" xmlns="http://www.w3.org/2000/svg">
<path d="M1 13.5C1 20.4036 6.59644 26 13.5 26C20.4036 26 26 20.4036 26 13.5C26 6.59644 20.4036 1 13.5 1C6.59644 1 1 6.59644 1 13.5Z" fill="#00FF11"/>
<path d="M17.6667 10.7222L12.1111 16.2778L9.33333 13.5M13.5 26C6.59644 26 1 20.4036 1 13.5C1 6.59644 6.59644 1 13.5 1C20.4036 1 26 6.59644 26 13.5C26 20.4036 20.4036 26 13.5 26Z" stroke="black" stroke-width="2" stroke-linecap="round" stroke-linejoin="round"/>
</svg>
